<?xml version="1.0" standalone="no"?>
<!DOCTYPE svg PUBLIC "-//W3C//DTD SVG 20010904//EN"
 "http://www.w3.org/TR/2001/REC-SVG-20010904/DTD/svg10.dtd">
<svg version="1.0" xmlns="http://www.w3.org/2000/svg"
 width="1684.000000pt" height="1684.000000pt" viewBox="0 0 1684.000000 1684.000000"
 preserveAspectRatio="xMidYMid meet">
<metadata>
Created by potrace 1.11, written by Peter Selinger 2001-2013
</metadata>
<g transform="translate(0.000000,1684.000000) scale(0.100000,-0.100000)"
fill="#000000" stroke="none">
<path d="M8917 11784 c-1 -1 -87 -4 -192 -8 -104 -4 -203 -8 -220 -11 -16 -2
-50 -7 -75 -10 -25 -4 -54 -8 -65 -10 -11 -1 -20 -3 -20 -4 0 -1 -16 -4 -35
-7 -19 -2 -46 -6 -60 -10 -29 -7 -59 -13 -97 -19 -16 -2 -45 -8 -65 -13 -21
-6 -38 -8 -38 -5 0 3 -7 0 -15 -7 -8 -7 -15 -10 -15 -7 0 3 -20 0 -45 -7 -25
-8 -45 -12 -45 -10 0 2 -12 -1 -27 -7 -16 -6 -39 -13 -53 -15 -21 -4 -104 -29
-170 -52 -8 -3 -24 -7 -35 -9 -11 -2 -24 -8 -29 -13 -6 -6 -15 -10 -22 -10 -6
0 -29 -8 -50 -17 -22 -9 -41 -17 -44 -18 -5 -1 -29 -12 -144 -62 -127 -56
-411 -204 -468 -244 -14 -11 -29 -19 -32 -19 -4 0 -31 -18 -61 -40 -30 -22
-57 -40 -61 -40 -4 0 -14 -7 -23 -15 -38 -35 -194 -155 -203 -155 -5 0 -6 -4
-3 -10 3 -5 -1 -10 -9 -10 -9 0 -16 -4 -16 -9 0 -6 -13 -18 -29 -27 -17 -10
-28 -21 -25 -26 3 -4 0 -8 -6 -8 -6 0 -77 -66 -158 -147 -141 -142 -187 -191
-256 -277 -17 -22 -41 -50 -53 -63 -13 -13 -23 -27 -23 -31 0 -4 -12 -20 -26
-37 -46 -53 -86 -115 -81 -128 2 -7 26 12 56 43 132 140 223 230 232 230 6 0
7 5 4 10 -3 6 -2 10 2 10 5 0 19 10 33 23 62 57 221 186 249 201 9 5 18 12 21
16 10 13 219 150 230 150 5 0 10 4 10 9 0 5 12 14 28 20 36 13 106 54 110 64
2 4 8 5 13 1 5 -3 9 0 9 6 0 6 5 8 10 5 6 -3 10 -1 10 5 0 6 5 8 10 5 6 -3 10
-3 10 2 0 4 15 15 33 22 48 22 239 111 259 122 10 5 22 9 27 9 5 0 25 7 45 15
20 8 39 16 43 16 5 1 25 10 46 20 20 11 37 17 37 15 0 -2 26 5 58 16 53 19
205 60 262 72 14 3 36 7 50 10 13 3 42 8 64 12 22 3 43 7 46 9 3 1 28 6 55 10
100 14 103 14 260 30 160 15 571 -1 740 -29 17 -3 44 -7 62 -10 17 -2 36 -6
40 -9 5 -3 27 -8 49 -11 42 -7 53 -9 124 -27 25 -6 52 -12 60 -14 8 -2 16 -4
18 -5 1 -2 7 -4 12 -5 6 -1 12 -4 15 -5 13 -7 93 -23 101 -20 4 1 10 -3 13 -9
4 -5 21 -12 38 -16 18 -3 42 -9 55 -14 13 -5 26 -9 30 -10 7 -1 45 -15 103
-37 11 -4 22 -8 25 -8 3 -1 11 -5 18 -9 6 -5 12 -5 12 -2 0 3 17 -3 38 -13 44
-24 74 -36 85 -34 4 1 7 -3 7 -8 0 -5 3 -9 8 -8 10 3 163 -72 185 -90 9 -8 17
-11 17 -6 0 5 4 5 8 -1 4 -5 38 -26 77 -45 38 -19 84 -45 101 -57 18 -12 35
-19 38 -15 3 3 6 1 6 -4 0 -6 27 -25 60 -44 33 -19 60 -37 60 -42 0 -4 6 -8
13 -8 7 0 22 -8 33 -18 10 -10 27 -21 37 -25 9 -3 17 -11 17 -17 0 -5 6 -10
14 -10 12 0 32 -15 93 -70 12 -11 25 -20 28 -20 4 0 12 -6 19 -12 7 -7 42 -38
77 -68 106 -90 308 -297 392 -401 15 -19 39 -47 53 -64 48 -58 144 -193 144
-203 0 -6 4 -12 8 -14 10 -4 97 -132 137 -203 16 -27 32 -52 35 -55 5 -5 33
-56 100 -185 47 -91 146 -335 156 -383 4 -18 10 -32 15 -32 5 0 9 -8 9 -17 0
-9 8 -42 19 -72 17 -53 42 -134 47 -156 1 -5 10 -39 19 -75 16 -62 20 -78 30
-125 12 -53 25 -122 30 -155 3 -24 12 -89 21 -155 5 -44 16 -182 18 -242 2
-29 5 -56 9 -59 3 -3 2 -16 -2 -28 -5 -11 -5 -30 -1 -41 4 -11 4 -27 -1 -36
-5 -9 -6 -19 -3 -22 9 -9 10 -87 1 -87 -5 0 -5 -5 -1 -12 9 -14 12 -58 4 -58
-3 0 -5 -30 -6 -68 -1 -91 -14 -235 -29 -322 -13 -79 -17 -100 -20 -100 -1 0
-21 7 -44 15 -23 8 -43 14 -46 15 -3 0 -6 0 -7 1 -2 0 -12 2 -23 4 -11 2 -29
5 -40 8 -11 3 -45 8 -75 12 -30 4 -63 9 -72 11 -70 12 -391 20 -409 9 -4 -3
-10 -1 -14 5 -4 6 -11 7 -17 4 -6 -4 -22 -8 -37 -9 -89 -8 -169 -16 -191 -20
-14 -2 -45 -7 -70 -10 -48 -6 -85 -12 -85 -15 0 -1 -7 -3 -15 -5 -65 -17 -163
-45 -200 -59 -25 -9 -54 -19 -64 -21 -11 -3 -23 -10 -28 -17 -4 -7 -8 -10 -8
-5 0 4 -27 -6 -60 -23 -33 -17 -60 -28 -60 -25 0 3 -10 -3 -22 -15 -12 -11
-27 -20 -34 -20 -7 0 -19 -6 -26 -13 -7 -7 -29 -20 -48 -30 -19 -9 -66 -35
-105 -57 -132 -77 -692 -348 -729 -354 -6 -1 -16 -5 -22 -8 -6 -4 -24 -9 -40
-13 -16 -3 -45 -8 -64 -12 -42 -8 -93 -8 -137 1 -18 3 -47 9 -65 12 -18 3 -50
14 -73 24 -22 9 -53 23 -70 30 -16 8 -33 13 -37 12 -5 -1 -8 3 -8 8 0 6 -6 10
-13 10 -8 0 -41 11 -75 25 -34 14 -70 27 -79 29 -10 1 -25 6 -33 9 -14 5 -142
43 -179 53 -147 38 -191 42 -356 39 -191 -3 -219 -6 -350 -39 -66 -16 -236
-91 -247 -110 -4 -6 -8 -8 -8 -4 0 4 -25 -8 -55 -27 -30 -19 -57 -35 -60 -35
-4 0 -13 -6 -20 -12 -32 -29 -45 -39 -45 -34 0 5 -130 -86 -161 -112 -8 -7
-34 -29 -59 -50 -24 -20 -82 -74 -129 -119 -46 -46 -88 -83 -92 -83 -4 0 -9
-4 -11 -10 -7 -20 -122 -130 -132 -127 -6 2 -19 0 -28 -5 -10 -5 -18 -5 -18
-1 0 10 -72 9 -88 -1 -7 -4 -12 -4 -12 1 0 10 -1101 10 -1117 0 -7 -5 -13 -5
-13 0 0 10 -101 10 -118 -1 -6 -4 -12 -3 -12 2 0 10 -54 7 -72 -4 -6 -4 -9 -3
-6 2 4 5 -7 9 -23 9 -16 0 -29 -4 -29 -8 0 -4 -8 -4 -17 2 -9 5 -26 5 -38 1
-12 -5 -28 -4 -35 0 -8 5 -21 5 -30 0 -9 -5 -22 -5 -30 0 -7 4 -23 5 -34 0
-12 -4 -30 -4 -41 0 -11 4 -24 5 -29 2 -12 -7 -85 -7 -92 1 -3 3 -13 3 -22 -1
-21 -8 -64 -7 -85 1 -9 3 -17 3 -17 -1 0 -9 -162 -8 -176 1 -6 3 -14 4 -18 0
-9 -10 -96 -10 -102 -1 -3 5 -11 5 -17 1 -12 -8 -80 -9 -719 -15 -208 -1 -378
-6 -378 -10 0 -4 -11 -3 -24 2 -13 5 -26 6 -30 3 -3 -3 -97 -7 -208 -9 -572
-9 -1286 -27 -1322 -33 -20 -3 7 -16 37 -18 55 -5 337 -15 454 -16 62 -1 113
-4 113 -7 0 -3 53 -6 118 -7 289 -5 382 -8 382 -15 0 -4 11 -3 24 2 13 5 26 6
29 4 3 -3 65 -7 139 -10 73 -2 205 -6 293 -9 248 -9 529 -17 650 -19 61 -1
116 -5 123 -9 6 -5 12 -4 12 1 0 10 36 9 46 0 3 -4 17 -3 30 2 13 5 26 6 28 1
6 -9 37 -8 54 3 6 4 12 4 12 -1 0 -4 68 -8 150 -8 82 0 150 -2 150 -5 0 -3
111 -6 248 -7 136 -1 391 -5 567 -8 176 -3 426 -7 556 -9 131 -2 241 -6 246
-9 5 -3 15 -2 22 3 8 4 26 4 41 0 18 -5 32 -4 39 3 8 8 11 8 11 -1 0 -9 5 -10
19 -2 11 5 22 7 24 3 3 -5 47 -7 99 -7 51 1 96 0 100 -2 4 -3 -39 -49 -95
-105 -115 -113 -117 -114 -172 -155 -22 -16 -41 -32 -43 -36 -2 -5 -8 -8 -13
-8 -6 0 -22 -11 -37 -25 -15 -14 -31 -25 -35 -25 -5 0 -23 -11 -41 -25 -18
-14 -38 -25 -44 -25 -7 0 -12 -4 -12 -10 0 -5 -4 -10 -8 -10 -5 0 -50 -24 -99
-54 -119 -72 -223 -127 -223 -118 0 4 -4 2 -8 -3 -9 -13 -147 -73 -147 -64 0
1 -9 -3 -21 -9 -20 -10 -52 -19 -99 -27 -60 -9 -216 -75 -179 -75 6 0 14 3 18
8 4 4 12 8 17 8 5 1 10 2 12 4 7 6 81 16 190 25 37 4 78 9 90 11 12 3 33 7 47
9 14 2 26 4 28 5 1 1 5 3 10 4 4 1 13 5 20 9 6 5 12 6 12 3 0 -3 33 6 73 20
39 14 79 27 87 29 8 2 40 14 70 25 30 12 56 21 58 21 1 -1 18 6 38 14 20 8 40
15 45 15 29 0 350 151 424 200 17 11 37 23 45 27 16 7 142 94 150 103 7 7 153
119 235 178 39 29 75 55 80 59 6 5 21 14 35 21 63 32 85 46 90 52 3 4 23 17
45 29 22 12 61 35 87 50 85 53 136 80 142 74 3 -4 6 -1 6 5 0 7 7 12 15 12 8
0 15 5 15 12 0 6 3 8 6 5 4 -3 16 0 28 8 11 8 28 15 37 15 10 0 19 4 21 8 5
11 162 71 200 76 18 3 34 6 36 7 1 1 10 2 20 3 9 1 22 4 27 7 14 8 180 4 240
-7 28 -4 53 -8 57 -9 3 0 10 -3 14 -7 4 -5 18 -8 31 -8 13 0 23 -5 23 -12 0
-6 3 -9 6 -5 4 3 21 -1 38 -10 17 -10 33 -17 36 -18 3 0 10 -3 15 -7 19 -11
90 -51 115 -64 14 -7 35 -22 48 -34 12 -11 22 -18 22 -15 0 3 12 -6 27 -20 15
-14 31 -25 34 -25 3 0 15 -8 27 -17 49 -42 59 -49 125 -85 12 -7 24 -15 27
-18 17 -19 193 -84 285 -106 97 -23 253 -23 388 -1 62 10 118 20 125 22 7 3
13 5 15 5 1 0 43 12 92 26 50 14 96 26 103 26 6 1 12 5 12 10 0 4 3 7 8 6 7
-1 22 4 90 33 85 38 137 60 157 68 39 16 184 91 243 126 9 6 80 46 157 90 77
43 142 82 145 85 24 25 262 140 296 142 16 1 34 4 39 7 6 3 19 6 30 7 11 1 45
5 75 9 133 16 206 19 285 10 51 -6 178 -17 212 -19 18 0 33 -3 33 -6 0 -3 12
-7 28 -8 48 -4 76 -13 167 -53 17 -7 33 -12 38 -11 4 1 7 -2 7 -7 0 -5 12 -12
27 -16 14 -3 36 -14 49 -23 12 -9 32 -24 44 -32 12 -8 29 -21 36 -28 8 -7 14
-11 14 -8 0 17 211 -150 306 -241 13 -13 28 -23 34 -23 6 0 8 -4 5 -10 -3 -5
-1 -10 4 -10 10 0 36 -19 66 -47 8 -7 16 -13 20 -13 3 0 11 -5 18 -10 7 -6 28
-24 47 -40 19 -16 40 -30 47 -30 6 0 13 -4 15 -9 5 -14 111 -91 126 -91 7 0
10 -4 7 -10 -3 -5 0 -10 8 -10 7 0 23 -9 35 -20 12 -11 26 -20 32 -20 5 0 10
-4 10 -10 0 -5 4 -10 10 -10 8 0 143 -83 175 -107 17 -13 69 -37 78 -35 4 1 7
-2 7 -8 0 -5 4 -10 9 -10 5 0 30 -10 57 -22 27 -12 51 -23 54 -23 8 -2 57 -23
103 -44 82 -37 117 -50 117 -43 0 4 4 1 8 -5 4 -7 17 -14 27 -16 11 -1 26 -6
33 -10 6 -5 12 -5 12 0 0 4 4 3 8 -2 6 -9 29 -18 102 -40 3 -1 12 -4 20 -8 8
-3 33 -11 55 -17 22 -6 47 -14 55 -17 8 -3 22 -7 30 -9 8 -1 40 -10 70 -19 30
-9 66 -18 80 -21 14 -3 41 -9 60 -14 19 -5 51 -11 70 -14 19 -3 46 -8 60 -10
78 -15 260 -30 365 -30 86 0 211 10 225 19 3 2 17 6 31 9 50 10 66 15 154 41
50 15 99 28 111 30 11 2 29 8 40 14 16 8 140 47 179 56 6 1 30 7 55 14 25 7
47 13 50 13 3 1 29 9 59 19 29 10 57 16 62 13 5 -3 9 -1 9 3 0 5 8 10 18 11
24 2 44 8 63 16 9 4 27 8 40 10 13 2 31 6 39 9 21 8 131 38 155 43 17 3 48 10
88 20 4 1 9 3 12 4 3 1 13 3 23 5 9 1 24 5 32 8 8 4 28 9 44 11 68 12 25 14
-175 10 -117 -2 -214 -6 -217 -8 -2 -3 -15 -1 -28 4 -13 5 -24 6 -24 2 0 -7
-270 -14 -590 -14 -194 0 -271 4 -300 16 -8 3 -26 8 -40 10 -14 3 -26 5 -27 7
-2 1 -6 2 -10 3 -51 13 -289 103 -329 124 -11 6 -82 41 -159 78 -77 37 -143
73 -147 78 -4 6 -8 8 -8 4 0 -7 -59 29 -87 52 -7 5 -14 10 -17 10 -6 0 -161
98 -266 167 -114 76 -234 172 -346 280 -34 32 -92 85 -129 118 -38 33 -150
141 -249 240 -100 99 -205 200 -235 225 -30 25 -66 55 -80 67 -46 40 -50 43
-76 55 -14 6 -25 14 -25 18 0 4 -9 10 -21 13 -22 6 -21 19 6 82 18 40 55 149
60 175 2 11 7 25 10 30 3 5 8 20 11 32 6 28 9 39 17 58 7 20 39 150 43 175 1
11 3 20 4 20 2 0 7 23 14 70 4 23 9 52 11 65 7 34 17 99 20 135 2 26 5 59 21
215 6 60 6 392 0 450 -3 30 -8 84 -12 120 -3 36 -8 76 -9 90 -2 14 -6 48 -10
75 -3 28 -8 57 -10 65 -3 8 -7 33 -10 55 -9 59 -12 75 -25 130 -6 28 -14 61
-17 75 -11 53 -28 114 -60 220 -15 47 -28 87 -28 90 -1 3 -5 12 -8 20 -3 8
-17 44 -31 80 -13 36 -30 79 -37 95 -7 17 -13 32 -14 35 -1 3 -11 27 -23 53
-12 27 -22 53 -22 58 0 5 -4 9 -10 9 -5 0 -9 3 -8 8 2 8 -86 189 -130 267 -16
28 -35 61 -43 75 -8 14 -16 27 -20 30 -3 3 -20 30 -38 60 -19 30 -39 58 -45
62 -6 4 -7 8 -3 8 4 0 -1 9 -11 20 -11 12 -37 46 -58 78 -21 31 -46 64 -54 72
-8 9 -26 30 -40 48 -30 39 -44 56 -131 153 -112 125 -218 227 -324 314 -26 22
-59 50 -72 63 -13 12 -28 22 -33 22 -6 0 -10 4 -10 8 0 4 -12 15 -27 24 -16
10 -40 27 -55 40 -30 26 -262 187 -293 204 -21 11 -113 66 -155 93 -14 8 -27
16 -30 16 -3 0 -16 7 -30 15 -14 8 -27 15 -30 15 -3 1 -44 20 -92 43 -48 23
-92 42 -98 42 -5 0 -10 5 -10 12 0 6 -3 8 -7 5 -3 -4 -12 -2 -20 4 -7 6 -13 8
-13 4 0 -4 -6 -3 -12 2 -7 6 -31 16 -53 23 -22 7 -46 17 -52 23 -7 5 -13 6
-13 2 0 -4 -12 0 -26 10 -14 9 -28 14 -31 11 -3 -3 -17 1 -32 8 -24 13 -218
73 -259 81 -9 2 -18 4 -19 5 -4 3 -12 5 -63 14 -25 5 -49 11 -54 14 -6 3 -19
7 -30 8 -12 1 -32 4 -45 8 -12 3 -42 8 -65 10 -22 3 -50 8 -62 10 -19 4 -81
12 -174 22 -19 2 -89 6 -155 10 -66 3 -137 6 -158 8 -20 1 -38 2 -40 0z"/>
<path d="M4465 10362 c-2 -3 -24 -6 -47 -8 -70 -5 -152 -15 -159 -20 -4 -2
-25 -6 -48 -9 -23 -3 -69 -12 -104 -21 -34 -8 -71 -17 -82 -19 -59 -14 -202
-63 -285 -98 -97 -41 -321 -154 -330 -166 -3 -3 -21 -15 -40 -25 -47 -26 -177
-122 -198 -146 -9 -11 -19 -20 -23 -20 -18 0 -239 -215 -239 -232 0 -6 -3 -9
-6 -5 -3 3 -35 -31 -70 -76 -36 -45 -70 -89 -77 -97 -19 -23 -127 -189 -127
-195 0 -3 -11 -22 -24 -43 -12 -20 -23 -39 -24 -42 0 -3 -24 -54 -53 -115 -29
-60 -54 -114 -55 -120 -1 -5 -9 -27 -18 -47 -9 -21 -17 -41 -17 -45 -1 -5 -6
-17 -12 -28 -12 -22 -13 -23 -22 -79 -4 -22 -11 -50 -16 -64 -5 -13 -6 -28 -3
-33 3 -6 1 -15 -4 -22 -5 -7 -15 -41 -22 -77 -6 -36 -14 -74 -16 -85 -10 -49
-15 -82 -18 -111 -2 -17 -5 -35 -8 -40 -20 -40 -15 -472 7 -626 3 -21 7 -53 9
-70 3 -18 8 -46 11 -63 3 -16 7 -42 8 -57 1 -15 5 -28 8 -28 3 0 6 -6 6 -12 0
-16 22 -115 33 -148 18 -56 21 -65 22 -70 1 -11 41 -108 58 -142 11 -21 18
-38 15 -38 -4 0 116 -237 152 -300 46 -80 192 -285 236 -332 14 -16 25 -28 23
-28 -16 0 291 -312 359 -366 l50 -39 -44 50 c-24 28 -51 56 -59 63 -9 6 -12
12 -7 12 4 0 -2 9 -15 20 -13 11 -20 20 -16 20 4 0 -4 11 -18 24 -15 13 -26
26 -26 30 0 4 -6 13 -12 20 -7 8 -19 22 -25 32 -7 11 -23 35 -36 54 -28 43
-81 133 -82 140 -2 9 -30 65 -35 70 -3 3 -6 10 -7 15 -1 6 -20 55 -42 110 -69
176 -109 326 -124 467 -2 15 -6 30 -10 34 -3 4 -2 14 3 24 5 10 7 20 4 23 -11
11 -15 81 -16 262 0 205 5 285 27 381 3 12 7 39 11 60 3 21 10 47 15 57 5 9 8
17 5 17 -3 0 0 15 5 33 6 17 12 41 15 52 6 25 10 36 16 55 3 8 13 40 23 70 10
30 23 66 28 80 6 14 11 27 12 30 1 3 8 19 15 35 7 17 14 33 14 37 1 3 5 10 9
14 4 5 18 29 30 53 33 68 41 81 49 81 5 0 8 4 8 9 0 5 18 38 40 72 22 35 43
71 47 79 3 8 17 30 30 48 13 17 22 32 19 32 -7 0 27 41 66 83 15 15 27 30 27
33 -1 8 144 165 227 248 102 101 141 135 246 213 161 119 195 143 207 143 6 0
11 5 11 10 0 6 7 10 15 10 8 0 15 5 15 10 0 6 7 10 15 10 8 0 15 5 15 11 0 5
5 7 10 4 6 -3 13 0 16 8 2 7 11 14 17 14 7 0 40 15 72 35 33 19 63 35 67 36 5
1 34 14 65 29 32 14 64 26 71 26 6 0 12 3 12 7 0 4 6 7 13 8 11 0 80 24 117
39 8 3 19 5 24 4 4 -1 13 3 20 8 6 5 23 12 36 15 14 3 70 17 125 31 55 13 118
27 140 30 22 3 58 8 80 10 104 15 173 18 330 18 175 0 258 -6 370 -27 17 -3
44 -8 60 -11 17 -3 39 -9 50 -12 11 -4 27 -7 35 -9 13 -1 89 -20 115 -28 6 -2
24 -6 40 -10 17 -4 39 -12 50 -16 11 -5 49 -19 85 -30 36 -12 69 -26 74 -31 6
-5 18 -9 28 -9 10 0 18 -5 18 -11 0 -5 4 -8 9 -5 5 3 14 -1 21 -9 7 -8 16 -13
20 -10 5 3 16 -2 24 -11 9 -8 16 -12 16 -8 0 4 8 0 18 -8 9 -8 26 -18 37 -22
27 -10 199 -118 203 -128 2 -4 8 -8 14 -8 5 0 15 -6 22 -12 7 -7 25 -22 41
-33 15 -11 40 -31 56 -43 36 -30 37 -24 2 20 -16 19 -39 50 -53 68 -69 90
-300 340 -300 325 0 -3 -18 14 -40 35 -23 22 -43 40 -46 40 -3 0 -19 13 -37
30 -18 16 -35 30 -38 30 -4 0 -22 13 -40 30 -19 16 -37 30 -41 30 -5 0 -16 7
-25 16 -57 51 -369 224 -406 224 -7 0 -17 4 -22 9 -12 10 -210 82 -267 97 -5
1 -9 2 -10 3 -3 2 -30 8 -65 15 -7 1 -15 5 -19 8 -3 4 -12 4 -20 1 -8 -3 -14
-1 -14 3 0 5 -10 10 -22 10 -13 1 -34 4 -48 8 -14 3 -42 8 -64 11 -21 3 -52 8
-70 11 -81 14 -509 27 -521 16z"/>
</g>
</svg>
